<svg xmlns="http://www.w3.org/2000/svg" id="icon" viewBox="0 0 600 600">
	<path stroke-width="0.2" stroke-linejoin="round" d="M 295.143,465.968C 293.102,465.515 288.756,464.645 285.543,464.079C 282.331,463.512 276.359,461.849 272.277,460.375L 264.869,457.691L 261.354,454.857L 257.802,452.023L 255.005,446.505L 252.208,440.987L 252.85,431.992L 253.455,422.997L 256.706,418.954C 258.482,416.724 259.956,414.532 259.956,414.041L 259.956,413.171L 251.15,414.078L 242.343,414.985L 240.529,415.93L 238.753,416.875L 213.165,417.102L 187.578,417.329L 186.18,416.195C 185.386,415.59 184.025,415.061 183.156,414.985C 182.249,414.948 179.376,414.57 176.731,414.154C 174.123,413.776 171.477,413.058 170.872,412.604C 170.305,412.151 168.038,411.433 165.846,411.055L 161.877,410.299L 160.668,408.825C 159.987,407.994 158.816,407.313 158.022,407.313L 156.661,407.313L 156.094,408.674L 155.565,409.997L 154.809,407.54L 154.091,405.121L 152.353,405.273C 151.408,405.348 149.669,405.386 148.498,405.31L 146.343,405.159L 138.482,399.301C 134.135,396.089 130.091,393.443 129.487,393.443C 128.844,393.443 127.294,394.464 125.972,395.711L 123.59,397.941L 120.831,398.092L 118.072,398.243L 118.072,399.528C 118.072,400.246 116.939,402.022 115.54,403.534C 114.179,405.046 112.705,406.255 112.328,406.255C 111.95,406.255 109.342,407.842 106.507,409.77L 101.405,413.285L 101.858,414.645L 102.312,416.006L 100.195,416.535L 98.0787,417.102L 96.718,419.672L 95.3196,422.242L 92.2204,422.242L 89.1212,422.242L 89.4613,419.936L 89.8015,417.593L 97.1716,411.962C 101.216,408.863 107.452,403.534 111.042,400.095C 114.595,396.656 119.093,392.952 121.02,391.818C 122.91,390.722 124.498,389.399 124.498,388.946C 124.498,388.455 123.288,387.623 121.814,387.056L 119.131,386.036L 119.131,384.826L 119.131,383.617L 116.485,381.539L 113.802,379.422L 113.802,376.852L 113.802,374.244L 111.647,372.09C 110.476,370.919 108.057,367.631 106.318,364.796L 103.143,359.619L 103.143,355.461L 103.143,351.266L 101.442,348.847L 99.7417,346.391L 101.934,345.824L 104.164,345.219L 103.068,343.216C 102.463,342.083 102.085,340.571 102.161,339.853C 102.274,339.135 102.274,337.623 102.198,336.527L 102.085,334.562L 91.6913,335.242C 85.9464,335.658 80.0881,336.376 78.6141,336.829C 77.1401,337.321 74.2676,338.228 72.2267,338.87C 70.148,339.513 66.1039,340.268 63.1558,340.609C 60.2456,340.949 56.8818,341.516 55.7102,341.894C 54.5007,342.234 53.2535,342.99 52.9133,343.519L 52.2708,344.501L 46.2613,345.144L 40.2141,345.748L 40.2141,344.161L 40.2141,342.536L 46.8661,340.76C 50.5322,339.815 55.2188,338.53 57.2976,337.963C 59.3385,337.358 68.9385,335.166 78.6141,333.05C 88.2897,330.934 97.3228,328.968 98.6834,328.666L 101.14,328.137L 102.728,325.68C 103.635,324.358 104.466,322.128 104.617,320.767C 104.768,319.369 105.449,317.215 106.167,315.93L 107.414,313.587L 107.414,308.22L 107.414,302.816L 108.586,302.816L 109.72,302.816L 109.304,301.531L 108.888,300.246L 110.551,298.28L 112.214,296.315L 111.836,289.966L 111.496,283.617L 115.049,283.579L 118.602,283.541L 116.75,282.105L 114.86,280.669L 116.485,279.346L 118.072,278.023L 119.584,279.233L 121.058,280.48L 121.625,279.119L 122.192,277.721L 123.326,279.346C 123.931,280.215 124.309,281.425 124.12,281.992L 123.779,283.05L 121.474,283.39C 120.189,283.579 119.168,284.07 119.168,284.486C 119.206,284.864 119.849,286.035 120.642,287.094L 122.079,288.983L 120.529,293.481C 119.698,295.975 118.337,299.452 117.581,301.19C 116.787,302.967 115.918,305.348 115.616,306.519C 115.313,307.691 114.066,311.395 112.857,314.758L 110.627,320.881L 110.627,323.564L 110.627,326.247L 113.197,326.247C 114.633,326.247 117.014,325.794 118.45,325.265C 119.924,324.698 123.666,323.98 126.803,323.677C 129.94,323.375 136.554,322.657 141.543,322.052C 146.532,321.485 154.394,320.541 159.042,320.011L 167.509,318.991L 169.739,319.822L 171.931,320.654L 174.274,319.785L 176.58,318.915L 177.902,320.465L 179.187,322.052L 178.469,322.77L 177.713,323.526L 167.357,323.64L 157.002,323.791L 151.672,325.416L 146.343,327.041L 134.627,327.759C 128.164,328.175 120.567,328.893 117.77,329.346C 114.935,329.838 112.252,330.631 111.723,331.16L 110.816,332.143L 110.173,341.969L 109.568,351.795L 111.685,352.929L 113.802,354.063L 113.802,355.915C 113.802,356.897 114.671,359.883 115.691,362.566C 116.712,365.212 118.866,369.067 120.491,371.183L 123.402,375L 123.402,376.512L 123.402,378.062L 126.728,380.934L 130.016,383.844L 132.321,382.597C 133.568,381.916 137.159,379.535 140.22,377.23L 145.852,373.111L 146.91,373.753L 147.931,374.396L 151.408,371.788C 153.335,370.352 155.943,368.84 157.266,368.462L 159.685,367.706L 159.685,366.724L 159.685,365.703L 165.808,362.907C 169.172,361.395 173.745,359.77 175.975,359.354L 179.981,358.523L 180.624,359.543L 181.266,360.563L 177.751,364.191L 174.236,367.82L 168.831,369.596C 165.846,370.579 161.613,372.317 159.42,373.489C 157.191,374.622 155.15,375.983 154.809,376.512C 154.469,377.041 153.524,377.457 152.655,377.457C 151.824,377.457 149.216,378.666 146.872,380.14L 142.639,382.786L 140.372,382.786L 138.104,382.786L 139.313,384.26L 140.523,385.734L 138.898,386.376C 138.028,386.716 137.272,387.434 137.272,387.963L 137.272,388.908L 140.258,389.513L 143.206,390.117L 145.852,392.574C 147.326,393.935 149.367,396.24 150.387,397.714L 152.239,400.359L 154.054,399.226L 155.868,398.092L 162.86,401.493L 169.814,404.932L 177.26,406.066L 184.705,407.2L 185.461,405.953L 186.255,404.706L 184.705,403.836L 183.156,402.967L 183.156,401.493L 183.156,400.057L 185.537,400.7C 186.86,401.04 189.392,402.136 191.131,403.194C 192.907,404.214 196.157,405.386 198.387,405.764L 202.394,406.52L 203.981,408.75L 205.531,411.017L 205.531,409.921L 205.531,408.825L 224.466,408.636L 243.402,408.409L 249.827,406.784C 253.342,405.877 257.65,404.932 259.427,404.668C 261.165,404.441 264.302,404.177 266.343,404.139C 268.384,404.101 272.466,404.366 275.414,404.706C 278.362,405.046 285.543,405.424 291.402,405.575L 302.098,405.839L 304.441,405.046L 306.822,404.214L 307.427,405.197L 308.032,406.217L 310.072,404.97L 312.076,403.723L 318.917,405.084L 325.795,406.444L 335.206,406.369L 344.617,406.293L 345.676,405.197C 346.28,404.63 347.452,404.139 348.284,404.139L 349.758,404.139L 349.228,405.537L 348.699,406.973L 359.849,407.011L 371.036,407.049L 371.981,407.994L 372.888,408.938L 390.274,408.22L 407.698,407.502L 415.559,405.802C 419.868,404.857 425.31,404.025 427.654,403.95L 431.887,403.761L 432.416,402.362L 432.945,400.964L 439.332,398.621L 445.72,396.316L 447.307,393.897L 448.895,391.478L 454.942,389.702C 458.306,388.719 462.803,387.17 464.995,386.263C 467.225,385.356 469.002,384.297 469.04,383.957C 469.04,383.617 470.702,382.181 472.743,380.783L 476.485,378.25L 476.485,376.285L 476.485,374.32L 473.046,372.544C 471.118,371.561 466.205,369.596 462.085,368.198C 457.965,366.799 452.221,364.947 449.273,364.078C 446.362,363.209 442.016,361.962 439.673,361.319C 437.329,360.677 434.343,359.656 433.021,359.014L 430.602,357.918L 430.602,356.86C 430.602,356.293 429.77,355.235 428.75,354.479L 426.898,353.118L 427.616,352.4L 428.334,351.682L 431.849,352.778C 433.814,353.383 437.556,354.441 440.202,355.159C 442.847,355.877 446.702,356.671 448.743,356.897L 452.447,357.313L 454.677,359.392C 455.925,360.526 457.134,361.244 457.436,360.941C 457.739,360.677 460.8,361.433 464.277,362.68C 467.754,363.927 473.839,365.741 477.77,366.761L 484.951,368.576L 485.972,367.933L 487.03,367.291L 487.673,363.549C 488.051,361.546 488.769,359.392 489.336,358.863C 489.902,358.296 490.356,356.973 490.356,355.877L 490.356,353.912L 492.019,353.307L 493.682,352.665L 493.115,351.191L 492.548,349.717L 494.665,349.717L 496.743,349.717L 496.743,348.885C 496.743,348.394 496.177,347.449 495.496,346.769L 494.211,345.484L 496.743,342.801L 499.276,340.117L 500.636,336.111L 502.035,332.143L 501.392,326.587L 500.75,321.07L 493.228,321.523L 485.745,322.014L 484.536,323.035L 483.326,324.017L 481.247,323.904C 480.076,323.866 473.159,324.358 465.827,325.038C 458.495,325.718 448.63,326.474 443.943,326.739L 435.364,327.23L 433.852,326.285L 432.34,325.378L 433.663,323.791L 434.948,322.241L 441.562,321.674C 445.228,321.372 451.351,320.616 455.131,320.011C 458.948,319.407 464.958,318.802 468.473,318.651L 474.898,318.349L 478.904,316.308L 482.91,314.305L 487.635,315.023L 492.397,315.703L 496.668,314.418L 500.977,313.133L 501.543,309.845C 501.846,308.031 501.921,304.063 501.732,301.039L 501.392,295.559L 499.54,293.707L 497.688,291.856L 498.255,290.344L 498.86,288.832L 497.802,286.754C 497.235,285.62 496.214,283.655 495.572,282.37C 494.929,281.122 493.569,278.628 492.51,276.776C 491.452,274.962 489.336,271.296 487.824,268.651C 486.274,266.043 485.027,263.473 485.027,262.982L 485.027,262.15L 488.466,262.453L 491.943,262.793L 491.679,264.115L 491.414,265.476L 492.473,265.476C 493.077,265.476 493.531,265.93 493.531,266.496C 493.531,267.026 494.74,268.802 496.214,270.351L 498.898,273.261L 498.898,275.227L 498.898,277.192L 500.75,279.119C 501.77,280.178 504.038,283.995 505.814,287.623L 509.027,294.161L 510.35,294.237L 511.673,294.274L 511.673,295.862L 511.673,297.449L 510.085,297.449L 508.498,297.449L 508.347,298.81C 508.271,299.528 508.347,300.624 508.46,301.19C 508.573,301.795 508.762,303.269 508.914,304.478C 509.027,305.688 509.934,307.804 510.879,309.127L 512.617,311.621L 514.885,311.017L 517.153,310.412L 517.72,311.962L 518.325,313.473L 519.874,313.473L 521.424,313.473L 520.819,312.491L 520.214,311.508L 523.389,310.79L 526.564,310.11L 528.983,310.828L 531.402,311.584L 530.079,310.185C 529.361,309.392 528.756,308.447 528.756,308.107L 528.756,307.426L 532.233,307.54C 534.123,307.615 536.277,308.031 537.033,308.485L 538.356,309.354L 545.575,309.089L 552.756,308.825L 556.271,309.656L 559.786,310.45L 559.37,311.697L 558.955,312.944L 552.643,312.944L 546.331,312.944L 543.95,314.305L 541.531,315.665L 541.531,314.569L 541.531,313.473L 539.641,313.473C 538.621,313.473 536.806,314.078 535.635,314.834L 533.556,316.194L 528.265,316.497L 522.973,316.799L 521.726,317.819L 520.479,318.84L 518.665,318.16L 516.888,317.441L 514.28,318.84L 511.673,320.238L 511.673,322.959L 511.673,325.718L 509.669,329.989C 508.536,332.332 507.024,336.187 506.306,338.53C 505.625,340.873 504.302,343.632 503.395,344.652L 501.77,346.504L 502.904,347.827L 504.038,349.188L 502.677,351.077C 501.921,352.098 500.825,352.929 500.183,352.929L 499.087,352.929L 499.616,354.894L 500.107,356.86L 498.444,358.56L 496.743,360.261L 496.743,362.302L 496.743,364.38L 494.438,367.291L 492.17,370.201L 493.644,371.145C 494.476,371.674 495.496,372.09 495.912,372.128L 496.668,372.128L 496.025,373.829L 495.383,375.529L 497.575,374.169L 499.767,372.808L 504.378,374.207C 506.948,374.963 510.577,376.059 512.466,376.625L 515.943,377.608L 515.943,378.704L 515.943,379.8L 510.047,379.195L 504.114,378.591L 504.756,379.611C 505.134,380.178 506.079,380.669 506.873,380.669C 507.666,380.669 508.951,381.274 509.745,382.068C 510.501,382.823 513.827,384.713 517.115,386.263C 520.403,387.812 523.654,389.777 524.372,390.647L 525.657,392.196L 524.599,392.839L 523.578,393.481L 522.973,392.536L 522.369,391.554L 517.002,390.269L 511.673,388.984L 511.068,388.001C 510.766,387.51 509.821,387.056 508.989,387.056C 508.195,387.056 505.739,385.847 503.584,384.411L 499.654,381.727L 496.328,381.69L 493.002,381.652L 490.356,380.14C 488.882,379.271 486.652,378.591 485.367,378.553L 483.062,378.515L 478.262,383.315C 475.616,385.96 473.121,388.115 472.706,388.115C 472.29,388.115 471.156,388.984 470.211,390.004C 469.266,391.025 466.885,392.99 464.958,394.35L 461.405,396.845L 459.969,396.278L 458.532,395.711L 455.698,398.319C 454.186,399.755 452.41,400.926 451.843,400.926C 451.238,400.926 448.63,401.909 445.984,403.118L 441.222,405.273L 440.088,404.592L 438.954,403.874L 436.082,405.991L 433.21,408.107L 429.77,408.863L 426.331,409.619L 426.331,410.601L 426.331,411.546L 431.131,410.904L 435.931,410.223L 435.931,411.282L 435.931,412.34L 428.75,413.02C 424.781,413.398 418.583,413.7 414.992,413.7L 408.454,413.738L 407.849,412.189L 407.282,410.677L 401.462,412.037L 395.641,413.398L 393.827,412.415L 392.05,411.395L 388.687,413.02L 385.323,414.645L 384.227,413.738L 383.131,412.793L 369.26,412.075C 361.663,411.66 353.991,411.395 352.252,411.508C 350.551,411.584 348.964,411.849 348.737,412.075C 348.51,412.264 349.455,414.305 350.854,416.573C 352.252,418.802 354.028,422.242 354.822,424.131L 356.221,427.646L 353.764,432.672C 352.403,435.469 350.778,438.908 350.173,440.382C 349.531,441.856 347.717,445.031 346.091,447.45L 343.181,451.834L 339.931,453.194C 338.154,453.95 336.34,455.084 335.924,455.726C 335.509,456.369 333.468,457.691 331.427,458.636C 329.348,459.581 326.476,460.866 325.002,461.509C 323.565,462.113 320.655,463.134 318.614,463.701C 316.573,464.305 311.433,465.288 307.2,465.93C 303.005,466.535 299.376,466.989 299.225,466.951C 299.036,466.875 297.184,466.459 295.143,465.968 Z M 304.857,458.976L 305.991,458.296L 303.383,455.462L 300.775,452.665L 299.565,449.037L 298.356,445.409L 298.356,440.307L 298.356,435.242L 291.439,434.487L 284.523,433.731L 283.276,432.219L 282.028,430.707L 283.2,429.536L 284.372,428.326L 303.307,428.515L 322.243,428.666L 323.263,429.687L 324.321,430.707L 322.809,431.236C 321.978,431.539 318.161,432.295 314.343,432.937C 310.526,433.58 306.558,434.335 305.537,434.638L 303.685,435.205L 303.685,438.455C 303.685,440.231 304.479,444.993 305.461,449.037L 307.238,456.407L 308.447,456.407C 309.09,456.407 313.625,454.744 318.501,452.778C 323.376,450.775 329.613,447.676 332.334,445.9C 335.055,444.162 338.646,441.289 340.309,439.513L 343.332,436.376L 342.236,432.484L 341.178,428.591L 337.285,423.224L 333.43,417.82L 333.884,416.573L 334.337,415.326L 339.364,420.503L 344.353,425.643L 344.92,425.114L 345.487,424.547L 344.088,420.73L 342.728,416.913L 339.326,413.625L 335.924,410.337L 333.657,411.773L 331.351,413.209L 330.595,412.075L 329.802,410.941L 325.002,411.017L 320.202,411.093L 318.841,410.11L 317.48,409.127L 313.21,410.564L 308.939,411.962L 307.805,410.79L 306.671,409.657L 303.005,411.811L 299.376,413.965L 297.827,412.642L 296.239,411.357L 295.559,413.171L 294.841,414.985L 294.198,413.965L 293.556,412.982L 285.581,413.852L 277.606,414.721L 275.452,414.229L 273.298,413.738L 270.614,416.157C 269.14,417.48 267.402,419.747 266.759,421.221C 266.079,422.657 264.454,426.361 263.131,429.385L 260.712,434.902L 263.509,439.664L 266.306,444.426L 269.783,447.374C 271.71,448.961 275.414,451.229 278.06,452.4L 282.898,454.517L 286.866,454.404L 290.872,454.29L 290.872,455.877L 290.872,457.465L 286.337,457.54L 281.802,457.654L 287.698,459.052L 293.556,460.488L 298.658,460.072C 301.455,459.846 304.252,459.354 304.857,458.976 Z M 270.765,454.479C 269.367,453.459 265.701,450.133 262.602,447.072C 259.502,443.973 256.668,441.44 256.252,441.44C 255.874,441.44 256.857,443.821 258.406,446.732L 261.279,452.023L 264.605,453.534C 266.457,454.366 268.649,455.311 269.556,455.651C 270.425,455.953 271.635,456.255 272.202,456.255L 273.298,456.293L 270.765,454.479 Z M 421.531,410.526L 422.211,409.468L 421.153,409.468C 420.548,409.468 419.792,409.921 419.414,410.526L 418.772,411.584L 419.83,411.584C 420.397,411.584 421.191,411.13 421.531,410.526 Z M 504.756,290.004C 504.378,289.399 503.887,288.946 503.622,288.946C 503.358,288.946 503.131,289.399 503.131,290.004L 503.131,291.062L 504.265,291.062L 505.399,291.062L 504.756,290.004 Z M 115.54,286.035L 114.898,285.393L 114.255,286.035L 113.613,286.64L 114.444,288.001L 115.276,289.361L 115.729,288.001C 115.956,287.283 115.88,286.376 115.54,286.035 Z M 178.356,402.022L 177.676,400.926L 179.339,400.926C 180.283,400.926 181.002,401.153 181.002,401.38C 181.002,401.644 180.586,402.136 180.019,402.476L 179.036,403.081L 178.356,402.022 Z M 518.703,382.257L 516.624,380.669L 517.304,380.027L 517.947,379.384L 521.726,380.631L 525.543,381.879L 525.543,382.861L 525.543,383.844L 523.162,383.844L 520.743,383.806L 518.703,382.257 Z M 292.762,347.752L 288.34,343.632L 290.759,342.309L 293.216,341.024L 298.696,340.457L 304.214,339.891L 306.746,341.931L 309.279,344.01L 306.746,347.903L 304.214,351.833L 300.699,351.833L 297.184,351.871L 292.762,347.752 Z M 265.247,311.319C 263.206,310.147 260.107,308.522 258.331,307.691C 256.592,306.859 252.51,305.121 249.298,303.836C 246.047,302.513 243.175,301.153 242.872,300.813C 242.57,300.435 241.134,299.565 239.698,298.885C 238.224,298.167 233.877,296.806 230.098,295.824C 226.28,294.879 220.498,293.367 217.285,292.46C 214.072,291.591 210.066,290.949 208.441,290.986L 205.493,291.1L 204.208,289.966C 203.452,289.361 201.902,288.19 200.731,287.358L 198.614,285.884L 201.676,284.713L 204.737,283.541L 210.217,284.713C 213.203,285.317 219.213,286.527 223.559,287.358C 227.868,288.19 233.348,289.172 235.691,289.512L 239.962,290.155L 242.759,292.158C 244.309,293.254 247.937,294.955 250.809,295.937C 253.72,296.882 257.839,297.789 259.956,297.902L 263.811,298.091L 268.8,301.228L 273.827,304.403L 273.827,306.217C 273.827,307.2 273.26,309.24 272.58,310.752L 271.332,313.473L 270.161,313.473C 269.518,313.473 267.326,312.491 265.247,311.319 Z M 336.227,305.234C 334.45,304.97 332.561,304.327 332.032,303.836L 331.087,302.891L 333.657,300.737C 335.055,299.565 336.794,298.583 337.474,298.583C 338.192,298.545 345.865,296.088 354.558,293.103C 363.25,290.117 372.019,287.472 374.098,287.169C 376.139,286.905 378.784,286.262 379.956,285.771C 381.128,285.28 387.024,283.881 393.071,282.672L 404.032,280.518L 405.506,281.047L 406.98,281.614L 409.058,280.518L 411.099,279.422L 414.992,280.064L 418.885,280.669L 418.885,281.614L 418.885,282.521L 415.861,282.521L 412.838,282.521L 405.014,285.204L 397.191,287.85L 393.676,287.85L 390.198,287.85L 389.632,288.794L 389.065,289.701L 384.643,290.419L 380.221,291.138L 377.991,292.687C 376.743,293.556 375.118,294.274 374.362,294.274C 373.606,294.274 369.751,295.748 365.783,297.6C 361.852,299.414 357.77,301.342 356.75,301.833C 355.729,302.362 352.857,303.496 350.362,304.365L 345.827,305.952L 342.614,305.839C 340.838,305.726 337.965,305.461 336.227,305.234 Z M 130.772,229.762L 129.071,226.096L 130.205,224.962L 131.339,223.828L 131.49,220.124L 131.603,216.421L 133.379,214.455L 135.156,212.49L 135.156,205.952L 135.156,199.414L 136.743,194.69L 138.368,189.966L 139.313,180.668L 140.258,171.334L 141.505,170.578L 142.753,169.784L 142.45,163.284L 142.11,156.745L 143.32,155.574L 144.491,154.364L 148.838,153.798L 153.184,153.193L 156.813,157.086L 160.479,160.94L 161.688,160.94L 162.898,160.94L 162.898,162.566L 162.898,164.191L 170.872,172.392L 178.885,180.593L 178.885,181.84L 178.885,183.125L 180.472,183.73L 182.098,184.334L 182.098,185.808L 182.098,187.244L 184.517,188.378L 186.973,189.512L 190.677,194.916L 194.343,200.359L 196.157,200.963L 197.972,201.568L 198.576,203.533L 199.219,205.498L 201.298,206.065L 203.414,206.594L 203.414,208.824L 203.414,211.054L 204.435,211.054C 204.964,211.054 206.249,212.49 207.269,214.191L 209.121,217.328L 211.276,217.895L 213.43,218.461L 214.753,217.365L 216.076,216.27L 236.145,214.72L 256.214,213.133L 286.602,212.49C 303.345,212.15 317.745,211.885 318.614,211.885C 319.484,211.923 326.438,212.226 334.035,212.604L 347.868,213.246L 351.95,214.342L 356.032,215.438L 366.387,215.778L 376.743,216.081L 379.729,217.328L 382.753,218.537L 382.11,219.557L 381.468,220.578L 370.81,220.124L 360.113,219.671L 358.98,218.953C 358.337,218.575 354.633,218.046 350.74,217.819C 346.847,217.592 336.945,217.403 328.743,217.365C 320.542,217.365 308.069,217.63 301.002,217.97C 293.972,218.31 283.654,219.104 278.098,219.709C 272.504,220.313 266.419,220.767 264.529,220.729L 261.128,220.691L 260.485,221.749L 259.805,222.808L 256.063,222.808L 252.359,222.808L 250.016,224.093L 247.672,225.378L 236.561,225.453L 225.449,225.529L 224.995,226.814L 224.58,228.137L 218.532,228.137L 212.485,228.137L 208.894,227.116L 205.342,226.096L 202.809,223.337C 201.373,221.825 200.277,220.238 200.353,219.822C 200.428,219.406 200.428,218.461 200.353,217.743L 200.202,216.421L 198.198,216.421L 196.157,216.421L 195.553,214.796L 194.948,213.208L 192.869,213.208L 190.753,213.208L 189.014,211.432L 187.276,209.693L 187.88,207.199L 188.523,204.667L 186.973,204.667C 186.142,204.667 185.31,204.214 185.121,203.684C 184.894,203.118 183.08,201.53 181.002,200.17L 177.298,197.675L 177.298,195.559L 177.298,193.48L 174.803,193.14L 172.346,192.762L 171.099,189.928C 170.381,188.34 168.983,186.148 167.962,185.015C 166.942,183.881 166.072,182.558 166.072,182.067L 166.072,181.198L 164.598,181.198L 163.124,181.198L 160.328,177.532C 158.816,175.529 157.531,173.337 157.531,172.618L 157.531,171.371L 155.868,172.014C 154.923,172.392 153.26,172.656 152.126,172.656L 150.085,172.656L 150.085,176.247C 150.085,178.174 149.745,180.102 149.367,180.479C 148.989,180.895 148.498,182.709 148.309,184.561L 147.931,187.925L 146.759,189.361L 145.55,190.797L 146.117,192.913L 146.683,195.068L 145.701,195.672L 144.756,196.277L 144.756,198.507C 144.756,199.754 144.302,202.248 143.735,204.062C 143.168,205.876 141.959,210.223 141.014,213.737C 140.069,217.252 138.368,222.279 137.31,224.924C 136.214,227.57 135.042,230.593 134.74,231.613C 134.4,232.634 133.757,233.465 133.304,233.428C 132.85,233.428 131.716,231.765 130.772,229.762 Z M 160.479,227.91C 160.176,225.982 160.025,222.959 160.139,221.22C 160.252,219.444 160.705,215.967 161.159,213.473L 161.991,208.938L 164.334,208.938L 166.677,208.938L 166.904,213.851L 167.093,218.764L 165.883,221.031C 165.165,222.316 164.334,224.962 164.031,226.965L 163.389,230.631L 162.217,231.047L 161.008,231.424L 160.479,227.91 Z M 469.002,225.907L 469.002,222.581L 465.676,219.482L 462.388,216.383L 462.879,213.737L 463.37,211.13L 460.876,209.467L 458.343,207.804L 458.343,206.065L 458.343,204.289L 456.038,201.795L 453.695,199.338L 455.773,199.338L 457.814,199.3L 456.756,198.507C 456.151,198.091 454.526,196.05 453.09,194.009C 451.654,191.969 449.877,189.89 449.084,189.436C 448.328,188.945 447.685,188.076 447.685,187.509C 447.685,186.904 446.476,185.166 445.002,183.578C 443.565,181.991 442.356,180.102 442.356,179.346L 442.356,178.023L 443.679,177.985L 445.002,177.985L 442.243,176.133C 440.731,175.113 437.972,172.543 436.12,170.389C 434.268,168.272 432.756,166.194 432.756,165.816C 432.756,165.438 431.773,164.077 430.602,162.83L 428.485,160.525L 428.485,158.559L 428.485,156.594L 426.898,155.99L 425.273,155.385L 425.273,153.42L 425.273,151.454L 424.29,150.85L 423.269,150.245L 420.548,153.835L 417.827,157.426L 417.827,160.26L 417.827,163.132L 416.202,163.737L 414.614,164.38L 415.257,165.4L 415.899,166.42L 414.085,168.423L 412.271,170.389L 412.913,171.409L 413.518,172.43L 410.797,178.439L 408.076,184.41L 407.017,184.41L 405.959,184.41L 406.602,185.468L 407.244,186.489L 405.959,188.907C 405.241,190.23 404.069,191.817 403.351,192.422C 402.671,192.989 401.764,194.727 401.424,196.277L 400.781,199.036L 397.039,204.516C 394.961,207.501 393.298,210.374 393.298,210.903C 393.298,211.432 392.58,212.49 391.673,213.208L 390.085,214.531L 388.498,213.208L 386.91,211.885L 387.515,209.089C 387.855,207.539 388.611,204.932 389.216,203.344L 390.35,200.396L 391.295,200.396L 392.202,200.396L 392.202,196.05L 392.202,191.704L 395.868,187.244C 397.871,184.788 399.496,182.558 399.534,182.256C 399.534,181.991 400.063,180.29 400.706,178.552C 401.348,176.776 402.293,174.395 402.822,173.223C 403.313,172.014 404.863,168.688 406.186,165.74C 407.509,162.792 409.058,160.109 409.587,159.731L 410.608,159.051L 410.117,157.615L 409.587,156.141L 412.536,152.739L 415.521,149.338L 414.954,147.222L 414.425,145.105L 416.693,143.896L 418.923,142.686L 418.318,141.704L 417.713,140.683L 418.81,138.832L 419.868,136.942L 419.943,138L 419.981,139.058L 421.833,136.791L 423.685,134.485L 427.162,133.767L 430.602,133.049L 430.602,134.145L 430.602,135.279L 432.151,134.674L 433.739,134.07L 434.495,137.093C 434.91,138.794 436.347,142.384 437.745,145.105C 439.106,147.826 440.202,150.358 440.202,150.774C 440.202,151.152 441.902,153.684 443.943,156.367L 447.685,161.243L 447.685,163.17L 447.685,165.098L 448.743,165.74C 449.348,166.118 449.802,167.176 449.802,168.121C 449.802,169.066 450.482,170.578 451.276,171.522C 452.107,172.43 454.262,176.814 456.113,181.198C 457.965,185.619 459.969,189.928 460.536,190.797C 461.103,191.666 462.085,193.594 462.765,195.068C 463.408,196.542 464.088,198.771 464.277,200.018C 464.428,201.303 465.336,203.798 466.28,205.612C 467.225,207.426 468.132,210.223 468.321,211.885C 468.51,213.511 469.228,215.892 469.909,217.139C 470.589,218.424 471.156,220.616 471.156,221.976L 471.156,224.508L 472.328,225.68L 473.537,226.889L 472.819,228.061C 472.403,228.666 471.383,229.195 470.551,229.195L 469.002,229.195L 469.002,225.907 Z M 387.25,219.444L 389.216,218.31L 390.387,219.482L 391.559,220.653L 388.422,220.653L 385.285,220.616L 387.25,219.444 Z M 430.337,210.865C 428.863,207.161 427.351,202.588 426.936,200.661L 426.18,197.222L 427.691,196.617L 429.165,196.05L 431.887,197.071L 434.57,198.091L 435.364,202.702C 435.817,205.272 436.12,208.673 436.082,210.298L 436.044,213.246L 434.532,215.4L 433.021,217.554L 430.337,210.865 Z M 153.827,174.811L 153.146,173.752L 154.809,173.752L 156.472,173.752L 156.472,174.811C 156.472,175.377 156.019,175.869 155.49,175.869C 154.923,175.869 154.167,175.377 153.827,174.811 Z "/>
</svg>
